<?xml version="1.0"?>
<svg xmlns="http://www.w3.org/2000/svg" xmlns:xlink="http://www.w3.org/1999/xlink" xmlns:svgjs="http://svgjs.com/svgjs" version="1.1" width="512" height="512" x="0" y="0" viewBox="0 0 497 497" style="enable-background:new 0 0 512 512" xml:space="preserve" class=""><circle r="248.5" cx="248.5" cy="248.5" fill="#28a745" shape="circle"/><g transform="matrix(0.8,0,0,0.8,49.69014739990226,69.03479156494137)"><g xmlns="http://www.w3.org/2000/svg"><path d="m318.167 369.877h-139.334s-57.69 39.303-57.69 127.123h50.343l77.014-16.789 77.015 16.789h50.343c-.001-87.82-57.691-127.123-57.691-127.123z" fill="#fbe29f" data-original="#fbe29f" style="" class=""/><path d="m294.969 438.848h-92.938c-16.87 0-30.545 13.676-30.545 30.545v27.607h154.029v-27.607c0-16.869-13.676-30.545-30.546-30.545z" fill="#f0ac99" data-original="#f0ac99" style="" class=""/><path d="m179.704 379.797v54.054c0 11.543 9.358 20.901 20.901 20.901 11.543 0 20.901-9.358 20.901-20.901v-54.054z" fill="#e7886e" data-original="#e7886e" style="" class=""/><g fill="#e27858"><path d="m317.297 379.797v54.054c0 11.543-9.358 20.901-20.901 20.901-11.543 0-20.901-9.358-20.901-20.901v-54.054z" fill="#e27858" data-original="#e27858" style="" class=""/><circle cx="390.834" cy="85.01" r="85.01" fill="#e27858" data-original="#e27858" style="" class=""/><circle cx="106.166" cy="85.01" r="85.01" fill="#e27858" data-original="#e27858" style="" class=""/></g><circle cx="390.834" cy="85.01" fill="#f7cec4" r="43.438" data-original="#f7cec4" style="" class=""/><circle cx="106.166" cy="85.01" fill="#f7cec4" r="43.438" data-original="#f7cec4" style="" class=""/><ellipse cx="248.5" cy="215.518" fill="#e7886e" rx="192.485" ry="192.485" transform="matrix(.707 -.707 .707 .707 -79.61 238.84)" data-original="#e7886e" style="" class=""/><path d="m123.143 201.488c0-62.425 17.568-121.423 53.596-164.57-70.696 28.508-120.724 97.817-120.724 178.6 0 106.136 86.349 192.485 192.485 192.485 5.844 0 11.623-.277 17.336-.79-77.206-24.963-142.693-104.05-142.693-205.725z" fill="#e27858" data-original="#e27858" style="" class=""/><g fill="#fff"><ellipse cx="151.952" cy="126.133" rx="28.369" ry="35.624" transform="matrix(.002 -1 1 .002 25.486 277.808)" fill="#ffffff" data-original="#ffffff" style="" class=""/><ellipse cx="345.048" cy="126.555" rx="28.37" ry="35.625" transform="matrix(.002 -1 1 .002 217.738 471.326)" fill="#ffffff" data-original="#ffffff" style="" class=""/></g><path d="m248.5 352.026c-73.745 0-133.741-31.855-133.741-105.6 0-73.744 59.996-77.46 133.741-77.46s133.741 3.716 133.741 77.46c0 73.745-59.996 105.6-133.741 105.6z" fill="#ffdcce" data-original="#ffdcce" style="" class=""/><g fill="#423e4f"><path d="m164.773 233.344c-4.143 0-7.5 3.358-7.5 7.5v16.089c0 4.142 3.357 7.5 7.5 7.5s7.5-3.358 7.5-7.5v-16.089c0-4.142-3.357-7.5-7.5-7.5z" fill="#423e4f" data-original="#423e4f" style="" class=""/><path d="m332.227 233.344c-4.143 0-7.5 3.358-7.5 7.5v16.089c0 4.142 3.357 7.5 7.5 7.5s7.5-3.358 7.5-7.5v-16.089c0-4.142-3.357-7.5-7.5-7.5z" fill="#423e4f" data-original="#423e4f" style="" class=""/><path d="m275.502 250.8c-3.125-2.722-7.861-2.396-10.582.727-4.145 4.756-10.13 7.484-16.42 7.484s-12.274-2.728-16.419-7.484c-2.723-3.123-7.46-3.447-10.582-.727-3.122 2.722-3.448 7.459-.727 10.582 6.994 8.025 17.101 12.629 27.728 12.629s20.734-4.604 27.729-12.629c2.721-3.123 2.395-7.861-.727-10.582z" fill="#423e4f" data-original="#423e4f" style="" class=""/><path d="m173.057 83.025c-4.143 0-7.5 3.357-7.5 7.5v14.477c0 4.143 3.357 7.5 7.5 7.5s7.5-3.357 7.5-7.5v-14.477c0-4.142-3.358-7.5-7.5-7.5z" fill="#423e4f" data-original="#423e4f" style="" class=""/><path d="m331.236 105.002v-14.477c0-4.143-3.357-7.5-7.5-7.5s-7.5 3.357-7.5 7.5v14.477c0 4.143 3.357 7.5 7.5 7.5s7.5-3.358 7.5-7.5z" fill="#423e4f" data-original="#423e4f" style="" class=""/><path d="m283.495 106.134c-4.143 0-7.5 3.358-7.5 7.5 0 5.481-4.459 9.94-9.939 9.94s-9.939-4.459-9.939-9.94c0-4.142-3.357-7.5-7.5-7.5s-7.5 3.358-7.5 7.5c0 5.481-4.459 9.94-9.94 9.94-5.48 0-9.939-4.459-9.939-9.94 0-4.142-3.357-7.5-7.5-7.5s-7.5 3.358-7.5 7.5c0 13.752 11.188 24.94 24.939 24.94 6.783 0 12.939-2.726 17.44-7.135 4.5 4.409 10.656 7.135 17.44 7.135 13.752 0 24.939-11.188 24.939-24.94-.001-4.142-3.358-7.5-7.501-7.5z" fill="#423e4f" data-original="#423e4f" style="" class=""/></g><path d="m140.973 254.92c0-32.879 16.926-62.261 44.563-82.943-42.084 5.95-70.776 23.455-70.776 74.449 0 54.663 32.968 86.303 80.061 99.021-33.085-21.328-53.848-54.111-53.848-90.527z" fill="#ffcabd" data-original="#ffcabd" style="" class=""/></g></g></svg>
